<?xml version="1.0" encoding="utf-8"?>
<!-- Generator: Adobe Illustrator 22.1.0, SVG Export Plug-In . SVG Version: 6.00 Build 0)  -->
<svg version="1.1" id="Content" xmlns="http://www.w3.org/2000/svg" xmlns:xlink="http://www.w3.org/1999/xlink" x="0px" y="0px"
	 width="192px" height="192px" viewBox="0 0 192 192" enable-background="new 0 0 192 192" xml:space="preserve">
<rect id="bounding_box_2_" fill="none" width="192" height="192"/>
<g id="logo_x5F_admob_x5F_192px">
	<g id="icon_x5F_admob_x5F_192px_2_">
		<path fill="#FBBC04" d="M92.01,8.26C93.28,8,98.31,8.01,99.51,8c34.25-0.27,81.75,28.87,84.49,84.28v69.18
			c0,12.45-10.28,22.54-22.77,22.54c-9,0-21.23-11.53-21.23-22.5V92.32c-1.27-18.26-16.07-38.81-40.99-40.36
			c-1.54-0.1-5.04-0.16-7.01,0.1"/>
		<path fill="#4285F4" d="M183.98,162c0,12.15-9.85,22-22,22S140,174.15,140,162c0-12.15,9.83-22,21.98-22S183.98,149.85,183.98,162
			z"/>
		<path fill="#EA4335" d="M93.2,183.24c12.6,0,22.81-10.02,22.81-22.37c0-12.36-10.46-21.33-23.05-21.33
			c-0.08,0-0.16,0.01-0.24,0.01c-21.66-1.5-41.92-20.57-40.44-46.71c0,0,0.01-0.13,0.03-0.42c1.25-20.51,18.75-39.12,40.9-40.4l0,0
			c0,0,0,0,0,0c12.6,0,22.81-9.04,22.81-21.39S105.8,8.25,93.2,8.25c-0.51,0-1.02-0.03-1.53,0C53.46,9.58,8.46,41.37,8.01,95.4v0.33
			c0,54.83,48.09,87.5,83.93,87.5H93.2z"/>
	</g>
</g>
</svg>
